<?xml version="1.0" encoding="UTF-8"?>
<svg id="Layer_1" data-name="Layer 1" xmlns="http://www.w3.org/2000/svg" viewBox="0 0 129.71 150.33">
  <defs>
    <style>
      .cls-1 {
        fill: #231f20;
      }
    </style>
  </defs>
  <rect class="cls-1" x="49.24" y="53.09" width="11.28" height="4.02"/>
  <rect class="cls-1" x="75.48" y="53.09" width="11.28" height="4.02"/>
  <rect class="cls-1" x="49.22" y="68.3" width="37.63" height="4.02"/>
  <rect class="cls-1" x="49.13" y="79.26" width="37.63" height="4.02"/>
  <rect class="cls-1" x="49.27" y="94.56" width="11.28" height="4.02"/>
  <rect class="cls-1" x="75.51" y="94.55" width="11.28" height="4.02"/>
  <rect class="cls-1" x="41.76" y="86.98" width="11.28" height="4.02" transform="translate(-41.5 136.55) rotate(-90.1)"/>
  <rect class="cls-1" x="41.71" y="60.74" width="11.28" height="4.02" transform="translate(-15.32 110.22) rotate(-90.1)"/>
  <rect class="cls-1" x="83.07" y="86.96" width="11.28" height="4.02" transform="translate(-.1 177.83) rotate(-90.1)"/>
  <rect class="cls-1" x="83.02" y="60.72" width="11.28" height="4.02" transform="translate(26.08 151.5) rotate(-90.1)"/>
  <rect class="cls-1" x="43.88" y="73.74" width="37.63" height="4.02" transform="translate(-13.12 138.37) rotate(-89.94)"/>
  <rect class="cls-1" x="54.84" y="73.84" width="37.63" height="4.02" transform="translate(-2.27 149.43) rotate(-89.94)"/>
</svg>