<?xml version="1.0" encoding="UTF-8"?>
<svg id="Layer_1" data-name="Layer 1" xmlns="http://www.w3.org/2000/svg" viewBox="0 0 129.71 150.33">
  <defs>
    <style>
      .cls-1 {
        fill: #231f20;
      }

      .cls-2 {
        fill: #fff;
      }
    </style>
  </defs>
  <polygon class="cls-2" points="46.24 33.32 44.31 37.3 37.59 36.76 37.31 32.23 33.61 30.44 30.73 32.5 27.29 40.5 12.53 55.32 15.9 58.85 31.72 61.65 35.12 67.23 36.14 70.48 37.86 111.97 35.26 115.4 35.39 120.34 44.04 119.93 46.37 116.36 51.31 113.07 52.69 98.79 55.02 94.95 87.41 95.77 90.02 98.11 98.12 106.89 98.53 112.11 95.92 115.54 97.57 120.75 104.98 119.52 111.57 113.07 111.57 98.11 108.27 95.5 108.96 80.13 111.98 77.93 114.86 68.87 120.35 65.44 120.63 50.62 115.82 52.81 112.8 54.46 104.29 64.07 63.39 64.89 61.47 59.27 55.16 59.13 47.47 51.72 47.61 46.09 52.14 41.83 50.9 33.46 46.24 33.32"/>
  <rect class="cls-1" x="62.53" y="62.35" width="43.24" height="3.69"/>
  <rect class="cls-1" x="62.51" y="64.67" width="30.31" height="6.04"/>
  <rect class="cls-1" x="66.71" y="70.33" width="26.11" height="4.65"/>
  <rect class="cls-1" x="75.31" y="74.68" width="12.96" height="4.65"/>
  <rect class="cls-1" x="49.41" y="53.62" width="4.07" height="4.16" transform="translate(102.9 111.41) rotate(180)"/>
  <rect class="cls-1" x="53.41" y="58.08" width="9.1" height="4.16" transform="translate(115.92 120.32) rotate(180)"/>
  <rect class="cls-1" x="31.9" y="44.77" width="4.07" height="4.16" transform="translate(67.86 93.71) rotate(180)"/>
  <rect class="cls-1" x="10.38" y="53.18" width="4.3" height="4.28" transform="translate(-42.79 67.85) rotate(-90)"/>
  <rect class="cls-1" x="14.61" y="49.01" width="4.3" height="4.28" transform="translate(-34.39 67.9) rotate(-90)"/>
  <rect class="cls-1" x="18.73" y="44.84" width="4.3" height="4.28" transform="translate(-26.09 67.85) rotate(-90)"/>
  <rect class="cls-1" x="23" y="40.51" width="4.3" height="4.28" transform="translate(-17.5 67.81) rotate(-90)"/>
  <rect class="cls-1" x="31.86" y="27.35" width="4.3" height="4.28" transform="translate(4.52 63.5) rotate(-90)"/>
  <rect class="cls-1" x="42.66" y="46.86" width="8.71" height="4.28" transform="translate(-1.98 96.02) rotate(-90)"/>
  <rect class="cls-1" x="44.83" y="36.15" width="12.96" height="4.28" transform="translate(13.02 89.6) rotate(-90)"/>
  <rect class="cls-1" x="44.9" y="31.81" width="5.87" height="4.16" transform="translate(95.67 67.78) rotate(180)"/>
  <rect class="cls-1" x="36.24" y="36" width="8.73" height="4.16" transform="translate(81.22 76.17) rotate(180)"/>
  <rect class="cls-1" x="35.47" y="32.41" width="5.82" height="4.28" transform="translate(3.84 72.93) rotate(-90)"/>
  <rect class="cls-1" x="25.26" y="33.87" width="8.68" height="4.28" transform="translate(-6.4 65.61) rotate(-90)"/>
  <rect class="cls-1" x="14.5" y="57.49" width="17.22" height="4.16" transform="translate(46.21 119.14) rotate(180)"/>
  <rect class="cls-1" x="29.52" y="63.89" width="8.71" height="4.28" transform="translate(-32.15 99.9) rotate(-90)"/>
  <rect class="cls-1" x="16.48" y="90.13" width="43.58" height="4.28" transform="translate(-54 130.55) rotate(-90)"/>
  <rect class="cls-1" x="33.74" y="77.04" width="17.64" height="4.54" transform="translate(-36.74 121.87) rotate(-90)"/>
  <rect class="cls-1" x="42.46" y="77.23" width="8.8" height="4.54" transform="translate(-32.64 126.35) rotate(-90)"/>
  <rect class="cls-1" x="29.4" y="116.31" width="9.09" height="4.54" transform="translate(-84.62 152.53) rotate(-90)"/>
  <rect class="cls-1" x="44.95" y="114.24" width="4.3" height="4.28" transform="translate(-69.28 163.47) rotate(-90)"/>
  <rect class="cls-1" x="38.15" y="116.24" width="4.3" height="9.46" transform="translate(-80.68 161.27) rotate(-90)"/>
  <rect class="cls-1" x="42.69" y="103.3" width="17.59" height="4.54" transform="translate(-54.09 157.06) rotate(-90)"/>
  <rect class="cls-1" x="53.63" y="93.17" width="34.69" height="3.69"/>
  <rect class="cls-1" x="88.3" y="96.89" width="4.3" height="4.28" transform="translate(-8.58 189.47) rotate(-90)"/>
  <rect class="cls-1" x="92.54" y="101.17" width="4.3" height="4.28" transform="translate(-8.62 197.99) rotate(-90)"/>
  <rect class="cls-1" x="94.62" y="107.73" width="8.82" height="4.28" transform="translate(-10.83 208.9) rotate(-90)"/>
  <rect class="cls-1" x="90.46" y="116.5" width="8.82" height="4.28" transform="translate(-23.76 213.51) rotate(-90)"/>
  <rect class="cls-1" x="105.81" y="114.39" width="4.3" height="4.28" transform="translate(-8.58 224.49) rotate(-90)"/>
  <rect class="cls-1" x="98.75" y="116" width="4.3" height="9.79" transform="translate(-19.99 221.8) rotate(-90)"/>
  <rect class="cls-1" x="103.44" y="103.54" width="17.54" height="4.28" transform="translate(6.54 217.89) rotate(-90)"/>
  <rect class="cls-1" x="99.14" y="86.02" width="17.54" height="4.28" transform="translate(19.75 196.07) rotate(-90)"/>
  <rect class="cls-1" x="107.75" y="72.9" width="8.73" height="4.28" transform="translate(37.08 187.16) rotate(-90)"/>
  <rect class="cls-1" x="109.92" y="53.7" width="4.3" height="4.28" transform="translate(56.23 167.9) rotate(-90)"/>
  <rect class="cls-1" x="105.68" y="58.02" width="4.3" height="4.28" transform="translate(47.67 167.99) rotate(-90)"/>
  <rect class="cls-1" x="114.24" y="66.48" width="4.3" height="4.28" transform="translate(47.77 185.01) rotate(-90)"/>
  <rect class="cls-1" x="111.94" y="55.63" width="17.57" height="4.28" transform="translate(62.96 178.49) rotate(-90)"/>
  <rect class="cls-1" x="112.05" y="46.88" width="9" height="4.55" transform="translate(67.39 165.71) rotate(-90)"/>
</svg>