<?xml version="1.0" encoding="UTF-8"?>
<svg id="Layer_1" data-name="Layer 1" xmlns="http://www.w3.org/2000/svg" viewBox="0 0 129.71 150.33">
  <defs>
    <style>
      .cls-1 {
        fill: #231f20;
      }
    </style>
  </defs>
  <rect class="cls-1" x="-46.89" y="74.44" width="127.16" height="4.02" transform="translate(-59.76 93.13) rotate(-90)"/>
  <rect class="cls-1" x="74.32" y="24.76" width="27.81" height="4.02" transform="translate(61.46 115) rotate(-90)"/>
  <rect class="cls-1" x="60.35" y="86.34" width="103.25" height="4.02" transform="translate(23.63 200.33) rotate(-90)"/>
  <rect class="cls-1" x="15.62" y="136.33" width="95.98" height="3.69"/>
  <rect class="cls-1" x="16.01" y="12.87" width="71.54" height="3.69"/>
  <rect class="cls-1" x="87.02" y="36.66" width="23.56" height="4.02" transform="translate(197.6 77.34) rotate(180)"/>
  <rect class="cls-1" x="90.06" y="16.67" width="4.04" height="4.02" transform="translate(73.4 110.75) rotate(-90)"/>
  <rect class="cls-1" x="94.07" y="20.72" width="4.04" height="4.02" transform="translate(73.36 118.83) rotate(-90)"/>
  <rect class="cls-1" x="98.1" y="24.69" width="4.04" height="4.02" transform="translate(73.42 126.81) rotate(-90)"/>
  <rect class="cls-1" x="102.08" y="28.69" width="4.04" height="4.02" transform="translate(73.4 134.8) rotate(-90)"/>
  <rect class="cls-1" x="106.02" y="32.67" width="4.04" height="4.02" transform="translate(73.36 142.72) rotate(-90)"/>
  <rect class="cls-1" x="38.57" y="33.1" width="11.87" height="3.69"/>
  <rect class="cls-1" x="54.5" y="33.1" width="15.79" height="3.69"/>
  <rect class="cls-1" x="74.38" y="33.17" width="15.79" height="3.69"/>
  <rect class="cls-1" x="30.54" y="41.08" width="11.87" height="3.69"/>
  <rect class="cls-1" x="62.41" y="41.08" width="19.85" height="3.69"/>
  <rect class="cls-1" x="46.55" y="41.04" width="11.87" height="3.69"/>
  <rect class="cls-1" x="30.59" y="48.91" width="19.85" height="3.69"/>
  <rect class="cls-1" x="54.44" y="48.99" width="23.83" height="3.69"/>
  <rect class="cls-1" x="82.22" y="49.07" width="15.91" height="3.69"/>
  <rect class="cls-1" x="30.59" y="57.04" width="11.87" height="3.69"/>
  <rect class="cls-1" x="46.6" y="57" width="11.87" height="3.69"/>
  <rect class="cls-1" x="62.42" y="57.08" width="11.87" height="3.69"/>
  <rect class="cls-1" x="78.3" y="57.03" width="15.91" height="3.69"/>
  <rect class="cls-1" x="78.28" y="68.93" width="19.85" height="3.69"/>
  <rect class="cls-1" x="58.28" y="68.84" width="15.91" height="3.69"/>
  <rect class="cls-1" x="38.5" y="69.02" width="15.91" height="3.69"/>
  <rect class="cls-1" x="30.53" y="76.9" width="15.91" height="3.69"/>
  <rect class="cls-1" x="50.49" y="76.9" width="15.91" height="3.69"/>
  <rect class="cls-1" x="70.27" y="76.8" width="15.91" height="3.69"/>
  <rect class="cls-1" x="42.53" y="84.86" width="15.91" height="3.69"/>
  <rect class="cls-1" x="62.31" y="84.86" width="15.91" height="3.69"/>
  <rect class="cls-1" x="82.36" y="84.86" width="15.91" height="3.69"/>
  <rect class="cls-1" x="74.37" y="92.76" width="15.91" height="3.69"/>
  <rect class="cls-1" x="90.3" y="76.81" width="7.89" height="3.69"/>
  <rect class="cls-1" x="30.58" y="84.8" width="7.89" height="3.69"/>
  <rect class="cls-1" x="50.38" y="92.72" width="19.85" height="3.69"/>
  <rect class="cls-1" x="30.56" y="92.72" width="15.91" height="3.69"/>
  <rect class="cls-1" x="38.49" y="104.72" width="15.91" height="3.69"/>
  <rect class="cls-1" x="58.44" y="104.68" width="11.87" height="3.69"/>
  <rect class="cls-1" x="74.36" y="104.65" width="7.89" height="3.69"/>
  <rect class="cls-1" x="86.27" y="104.7" width="11.87" height="3.69"/>
  <rect class="cls-1" x="82.17" y="112.66" width="15.91" height="3.69"/>
  <rect class="cls-1" x="70.33" y="120.62" width="15.91" height="3.69"/>
  <rect class="cls-1" x="30.63" y="112.66" width="15.91" height="3.69"/>
  <rect class="cls-1" x="50.47" y="112.61" width="11.87" height="3.69"/>
  <rect class="cls-1" x="66.37" y="112.67" width="11.87" height="3.69"/>
  <rect class="cls-1" x="30.58" y="120.65" width="11.87" height="3.69"/>
  <rect class="cls-1" x="46.48" y="120.6" width="19.78" height="3.69"/>
  <rect class="cls-1" x="90.22" y="120.62" width="7.89" height="3.69"/>
</svg>