<?xml version="1.0" encoding="UTF-8"?>
<svg id="Layer_1" data-name="Layer 1" xmlns="http://www.w3.org/2000/svg" viewBox="0 0 129.71 150.33">
  <defs>
    <style>
      .cls-1 {
        fill: #231f20;
      }
    </style>
  </defs>
  <rect class="cls-1" x="-45.67" y="74.48" width="127.16" height="4.02" transform="translate(-58.58 94.4) rotate(-90)"/>
  <rect class="cls-1" x="75.55" y="24.81" width="27.81" height="4.02" transform="translate(62.64 116.27) rotate(-90)"/>
  <rect class="cls-1" x="61.58" y="86.38" width="103.25" height="4.02" transform="translate(24.81 201.6) rotate(-90)"/>
  <rect class="cls-1" x="16.85" y="136.37" width="95.98" height="3.69"/>
  <rect class="cls-1" x="17.24" y="12.91" width="71.54" height="3.69"/>
  <rect class="cls-1" x="51.65" y="40.77" width="27.87" height="3.69"/>
  <rect class="cls-1" x="63.55" y="52.78" width="27.87" height="3.69"/>
  <rect class="cls-1" x="51.64" y="64.69" width="14.31" height="3.69"/>
  <rect class="cls-1" x="63.55" y="76.69" width="27.87" height="3.69"/>
  <rect class="cls-1" x="41.94" y="53.31" width="23.12" height="3.69" transform="translate(-1.65 108.65) rotate(-90)"/>
  <rect class="cls-1" x="53.84" y="64.22" width="23.12" height="3.69" transform="translate(-.67 131.46) rotate(-90)"/>
  <rect class="cls-1" x="78.02" y="63.37" width="23.12" height="3.69" transform="translate(24.36 154.8) rotate(-90)"/>
  <rect class="cls-1" x="71.27" y="46.88" width="12.83" height="3.69" transform="translate(28.95 126.41) rotate(-90)"/>
  <rect class="cls-1" x="59.39" y="112.41" width="11.88" height="3.69" transform="translate(-48.92 179.58) rotate(-90)"/>
  <rect class="cls-1" x="35.91" y="112.34" width="11.88" height="3.69" transform="translate(-72.34 156.04) rotate(-90)"/>
  <rect class="cls-1" x="47.66" y="100.57" width="11.88" height="3.69" transform="translate(107.2 204.83) rotate(-180)"/>
  <rect class="cls-1" x="47.7" y="124.18" width="11.88" height="3.69" transform="translate(107.27 252.06) rotate(-180)"/>
  <rect class="cls-1" x="88.24" y="36.7" width="23.56" height="4.02" transform="translate(200.05 77.42) rotate(180)"/>
  <rect class="cls-1" x="91.29" y="16.71" width="4.04" height="4.02" transform="translate(74.59 112.02) rotate(-90)"/>
  <rect class="cls-1" x="95.3" y="20.77" width="4.04" height="4.02" transform="translate(74.55 120.09) rotate(-90)"/>
  <rect class="cls-1" x="99.32" y="24.73" width="4.04" height="4.02" transform="translate(74.61 128.08) rotate(-90)"/>
  <rect class="cls-1" x="103.31" y="28.73" width="4.04" height="4.02" transform="translate(74.59 136.07) rotate(-90)"/>
  <rect class="cls-1" x="107.25" y="32.71" width="4.04" height="4.02" transform="translate(74.55 143.99) rotate(-90)"/>
  <rect class="cls-1" x="43.58" y="104.27" width="4.04" height="4.02" transform="translate(-60.68 151.88) rotate(-90)"/>
  <rect class="cls-1" x="43.65" y="120.11" width="4.04" height="4.02" transform="translate(-76.45 167.78) rotate(-90)"/>
  <rect class="cls-1" x="59.57" y="120.17" width="4.04" height="4.02" transform="translate(-60.59 183.77) rotate(-90)"/>
  <rect class="cls-1" x="59.53" y="104.33" width="4.04" height="4.02" transform="translate(-44.8 167.89) rotate(-90)"/>
  <rect class="cls-1" x="75.45" y="100.29" width="4.04" height="4.02" transform="translate(-24.82 179.77) rotate(-90)"/>
  <rect class="cls-1" x="75.45" y="124.22" width="4.04" height="4.02" transform="translate(-48.76 203.7) rotate(-90)"/>
  <rect class="cls-1" x="99.35" y="100.29" width="4.04" height="4.02" transform="translate(-.93 203.66) rotate(-90)"/>
  <rect class="cls-1" x="99.35" y="124.22" width="4.04" height="4.02" transform="translate(-24.86 227.59) rotate(-90)"/>
  <rect class="cls-1" x="99.35" y="52.66" width="4.04" height="4.02" transform="translate(46.7 156.03) rotate(-90)"/>
  <rect class="cls-1" x="99.35" y="76.59" width="4.04" height="4.02" transform="translate(22.77 179.97) rotate(-90)"/>
  <rect class="cls-1" x="27.71" y="100.21" width="4.04" height="4.02" transform="translate(-72.49 131.95) rotate(-90)"/>
  <rect class="cls-1" x="27.71" y="124.14" width="4.04" height="4.02" transform="translate(-96.42 155.88) rotate(-90)"/>
  <rect class="cls-1" x="27.71" y="52.58" width="4.04" height="4.02" transform="translate(-24.86 84.32) rotate(-90)"/>
  <rect class="cls-1" x="27.71" y="76.52" width="4.04" height="4.02" transform="translate(-48.79 108.26) rotate(-90)"/>
  <rect class="cls-1" x="27.81" y="28.75" width="4.04" height="4.02" transform="translate(-.93 60.59) rotate(-90)"/>
  <rect class="cls-1" x="51.61" y="28.73" width="4.04" height="4.02" transform="translate(22.88 84.37) rotate(-90)"/>
  <rect class="cls-1" x="75.45" y="28.74" width="4.04" height="4.02" transform="translate(46.72 108.22) rotate(-90)"/>
  <rect class="cls-1" x="51.59" y="76.38" width="4.04" height="4.02" transform="translate(-24.79 132) rotate(-90)"/>
</svg>