<?xml version="1.0" encoding="UTF-8"?>
<svg id="Layer_1" data-name="Layer 1" xmlns="http://www.w3.org/2000/svg" viewBox="0 0 129.71 150.33">
  <defs>
    <style>
      .cls-1 {
        fill: #231f20;
      }
    </style>
  </defs>
  <rect class="cls-1" x="21.61" y="10.22" width="84.63" height="4.02"/>
  <rect class="cls-1" x="29.61" y="22.36" width="68.64" height="4.02"/>
  <rect class="cls-1" x="29.61" y="79.12" width="68.64" height="4.02"/>
  <rect class="cls-1" x="17.76" y="119.8" width="92.63" height="4.02"/>
  <rect class="cls-1" x="17.76" y="135.67" width="92.63" height="4.02"/>
  <rect class="cls-1" x="1.06" y="50.74" width="53.04" height="4.02" transform="translate(-25.17 80.34) rotate(-90)"/>
  <rect class="cls-1" x="73.65" y="50.7" width="53.04" height="4.02" transform="translate(47.47 152.88) rotate(-90)"/>
  <rect class="cls-1" x="-34.77" y="67.32" width="101.17" height="4.02" transform="translate(-53.52 85.14) rotate(-90)"/>
  <rect class="cls-1" x="61.67" y="67.2" width="101.17" height="4.02" transform="translate(43.05 181.47) rotate(-90)"/>
  <rect class="cls-1" x="10.53" y="127.73" width="18.49" height="4.02" transform="translate(-109.97 149.51) rotate(-90)"/>
  <rect class="cls-1" x="99.14" y="127.04" width="18.49" height="4.02" transform="translate(-20.66 237.43) rotate(-90)"/>
  <rect class="cls-1" x="17.46" y="14.16" width="4.16" height="4.71" transform="translate(39.09 33.03) rotate(-180)"/>
  <rect class="cls-1" x="106.24" y="14.11" width="4.16" height="4.71" transform="translate(216.63 32.94) rotate(-180)"/>
  <rect class="cls-1" x="39.2" y="34.65" width="4.16" height="4.18" transform="translate(82.57 73.48) rotate(-180)"/>
  <rect class="cls-1" x="47.19" y="34.65" width="4.16" height="4.18" transform="translate(98.55 73.48) rotate(-180)"/>
  <rect class="cls-1" x="74.19" y="99.16" width="24.32" height="4.02"/>
  <rect class="cls-1" x="25.55" y="103.25" width="7.97" height="4.02"/>
  <rect class="cls-1" x="55.19" y="34.65" width="4.16" height="4.18" transform="translate(114.53 73.48) rotate(-180)"/>
  <rect class="cls-1" x="63.18" y="34.65" width="4.16" height="4.18" transform="translate(130.52 73.48) rotate(-180)"/>
  <rect class="cls-1" x="71.17" y="34.65" width="4.16" height="4.18" transform="translate(146.5 73.48) rotate(-180)"/>
  <rect class="cls-1" x="79.16" y="34.65" width="4.16" height="4.18" transform="translate(162.48 73.48) rotate(-180)"/>
  <rect class="cls-1" x="39.01" y="66.58" width="4.16" height="4.18" transform="translate(109.76 27.58) rotate(90)"/>
  <rect class="cls-1" x="39.01" y="58.59" width="4.16" height="4.18" transform="translate(101.77 19.59) rotate(90)"/>
  <rect class="cls-1" x="39.01" y="50.6" width="4.16" height="4.18" transform="translate(93.78 11.6) rotate(90)"/>
  <rect class="cls-1" x="39.01" y="42.61" width="4.16" height="4.18" transform="translate(85.78 3.61) rotate(90)"/>
  <rect class="cls-1" x="47.28" y="42.61" width="4.16" height="4.18" transform="translate(98.72 89.39) rotate(-180)"/>
  <rect class="cls-1" x="55.27" y="42.61" width="4.16" height="4.18" transform="translate(114.7 89.39) rotate(-180)"/>
  <rect class="cls-1" x="63.26" y="42.61" width="4.16" height="4.18" transform="translate(130.69 89.39) rotate(-180)"/>
  <rect class="cls-1" x="47.26" y="66.67" width="4.16" height="4.18" transform="translate(118.1 19.42) rotate(90)"/>
  <rect class="cls-1" x="47.26" y="58.68" width="4.16" height="4.18" transform="translate(110.11 11.43) rotate(90)"/>
  <rect class="cls-1" x="47.26" y="50.69" width="4.16" height="4.18" transform="translate(102.11 3.44) rotate(90)"/>
  <rect class="cls-1" x="55.12" y="66.63" width="4.16" height="4.18" transform="translate(125.92 11.51) rotate(90)"/>
</svg>