<?xml version="1.0" encoding="UTF-8"?>
<svg id="Layer_1" data-name="Layer 1" xmlns="http://www.w3.org/2000/svg" viewBox="0 0 129.71 150.33">
  <defs>
    <style>
      .cls-1 {
        fill: #231f20;
      }

      .cls-2 {
        fill: #fff;
      }
    </style>
  </defs>
  <rect class="cls-1" x="7" y="15.53" width="118.02" height="118.97"/>
  <polygon class="cls-2" points="44.22 90.35 44.22 19.56 10.35 19.56 10.35 60.35 10.35 90.35 10.35 131.14 21.44 131.14 25.83 131.14 36.92 131.14 36.92 115.63 25.83 115.63 25.83 112.86 36.92 112.86 36.92 93.65 29.46 93.65 29.46 90.35 44.22 90.35"/>
  <polygon class="cls-2" points="114.25 48.78 110.68 48.78 110.68 41.32 107.27 41.32 107.27 37.92 99.77 37.92 99.77 34.25 73.21 34.25 73.21 37.92 65.88 37.92 65.88 41.32 62.36 41.32 62.36 48.78 58.75 48.78 58.75 76.57 58.75 101.53 58.75 108.37 55.06 108.37 55.06 112.24 47.6 112.24 47.6 116.26 58.75 116.26 71.92 116.26 73.21 116.26 74.23 116.26 99.77 116.26 99.77 112.76 107.27 112.76 107.27 109.15 110.68 109.15 110.68 101.53 114.25 101.53 114.25 48.78"/>
  <rect class="cls-1" x="25.06" y="34.12" width="4.56" height="11.88"/>
  <rect class="cls-1" x="80.81" y="49.1" width="11.56" height="41.34"/>
  <rect class="cls-1" x="80.81" y="93.66" width="11.56" height="11.75"/>
</svg>