<?xml version="1.0" encoding="UTF-8"?>
<svg id="Layer_1" data-name="Layer 1" xmlns="http://www.w3.org/2000/svg" viewBox="0 0 129.71 150.33">
  <defs>
    <style>
      .cls-1 {
        fill: #231f20;
      }

      .cls-2 {
        fill: #fff;
      }
    </style>
  </defs>
  <rect class="cls-1" x="6.8" y="13.19" width="118.02" height="118.97"/>
  <polygon class="cls-2" points="40.49 87.94 40.49 17.15 10.74 17.06 10.74 57.85 10.74 87.86 10.74 128.64 19.72 128.64 23.27 128.64 32.25 128.64 32.25 113.14 23.27 113.14 23.27 110.36 32.25 110.36 32.25 91.16 26.22 91.16 26.22 87.86 40.49 87.94"/>
  <polygon class="cls-2" points="114.06 46.44 110.48 46.44 110.48 38.98 107.07 38.98 107.07 35.58 99.57 35.58 99.57 31.91 73.02 31.91 73.02 35.58 65.69 35.58 65.69 38.98 62.16 38.98 62.16 46.44 58.55 46.44 58.55 74.23 58.55 99.19 58.55 106.03 54.86 106.03 54.86 109.9 47.4 109.9 47.4 113.92 58.55 113.92 71.72 113.92 73.02 113.92 74.03 113.92 99.57 113.92 99.57 110.42 107.07 110.42 107.07 106.81 110.48 106.81 110.48 99.19 114.06 99.19 114.06 46.44"/>
  <rect class="cls-1" x="21.49" y="35.59" width="4.56" height="11.88"/>
  <rect class="cls-1" x="65.91" y="54.35" width="11.52" height="11.65"/>
  <rect class="cls-1" x="69.6" y="50.73" width="29.66" height="7.17"/>
  <rect class="cls-1" x="73.08" y="47.02" width="22.46" height="7.17"/>
  <rect class="cls-1" x="91.61" y="54.41" width="11.52" height="18.72"/>
  <rect class="cls-1" x="87.87" y="69.1" width="11.52" height="7.8"/>
  <rect class="cls-1" x="84.29" y="72.82" width="11.52" height="7.8"/>
  <rect class="cls-1" x="80.42" y="76.3" width="11.52" height="7.8"/>
  <rect class="cls-1" x="76.93" y="79.69" width="11.52" height="11.99"/>
  <rect class="cls-1" x="76.93" y="94.43" width="11.52" height="11.99"/>
</svg>