<?xml version="1.0" encoding="UTF-8"?>
<svg id="Layer_1" data-name="Layer 1" xmlns="http://www.w3.org/2000/svg" xmlns:xlink="http://www.w3.org/1999/xlink" viewBox="0 0 129.71 150.33">
  <defs>
    <style>
      .cls-1 {
        fill: #231f20;
      }

      .cls-2 {
        fill: #fff;
      }

      .cls-3 {
        opacity: 0;
      }
    </style>
  </defs>
  <image class="cls-3" width="120" height="164" transform="translate(12.93 1.42) scale(.92)" xlink:href="../../Screenshot 2026-04-10 at 11.36.07 AM.png"/>
  <polygon class="cls-2" points="28.51 26.46 31.85 23.53 105.22 24.19 107.13 26.41 106.52 34.65 105.3 42.89 102.94 127.89 101.7 129.08 33.5 128.8 32.03 126.05 31.38 45.2 30.74 33.8 27.8 33.16 28.51 26.46"/>
  <rect class="cls-1" x="29.7" y="21.25" width="76.55" height="4.02"/>
  <rect class="cls-1" x="25.76" y="32.2" width="84.25" height="4.02"/>
  <rect class="cls-1" x="33.01" y="127.89" width="69.94" height="4.02"/>
  <rect class="cls-1" x="-16.33" y="78.55" width="94.78" height="4.02" transform="translate(-49.5 111.62) rotate(-90)"/>
  <rect class="cls-1" x="57.55" y="78.55" width="94.78" height="4.02" transform="translate(24.38 185.5) rotate(-90)"/>
  <rect class="cls-1" x="22.89" y="28.15" width="9.78" height="4.02" transform="translate(-2.39 57.94) rotate(-90)"/>
  <rect class="cls-1" x="103.11" y="28.08" width="9.78" height="4.02" transform="translate(77.92 138.09) rotate(-90)"/>
  <rect class="cls-1" x="54.62" y="18.13" width="4.4" height="4.02" transform="translate(36.68 76.95) rotate(-90)"/>
  <rect class="cls-1" x="76.77" y="18.13" width="4.4" height="4.02" transform="translate(58.83 99.1) rotate(-90)"/>
  <rect class="cls-1" x="58.81" y="13.94" width="18.21" height="4.02" transform="translate(135.83 31.9) rotate(-180)"/>
  <rect class="cls-1" x="54.97" y="80.03" width="69.78" height="4.02" transform="translate(7.82 171.9) rotate(-90)"/>
  <rect class="cls-1" x="91.84" y="116.94" width="4.03" height="4.02" transform="translate(-25.1 212.8) rotate(-90)"/>
  <rect class="cls-1" x="91.83" y="43.19" width="4.03" height="4.02" transform="translate(48.65 139.04) rotate(-90)"/>
  <rect class="cls-1" x="40.54" y="80.17" width="69.78" height="4.02" transform="translate(-6.74 157.61) rotate(-90)"/>
  <rect class="cls-1" x="77.41" y="117.07" width="4.03" height="4.02" transform="translate(-39.66 198.51) rotate(-90)"/>
  <rect class="cls-1" x="77.41" y="43.32" width="4.03" height="4.02" transform="translate(34.09 124.75) rotate(-90)"/>
  <rect class="cls-1" x="25.66" y="80.05" width="69.78" height="4.02" transform="translate(-21.5 142.61) rotate(-90)"/>
  <rect class="cls-1" x="62.53" y="116.96" width="4.03" height="4.02" transform="translate(-54.42 183.51) rotate(-90)"/>
  <rect class="cls-1" x="62.53" y="43.2" width="4.03" height="4.02" transform="translate(19.33 109.75) rotate(-90)"/>
  <rect class="cls-1" x="11.04" y="79.92" width="69.78" height="4.02" transform="translate(-36 127.86) rotate(-90)"/>
  <rect class="cls-1" x="47.91" y="116.83" width="4.03" height="4.02" transform="translate(-68.91 168.75) rotate(-90)"/>
  <rect class="cls-1" x="47.9" y="43.07" width="4.03" height="4.02" transform="translate(4.83 95) rotate(-90)"/>
</svg>