<?xml version="1.0" encoding="UTF-8"?>
<svg id="Layer_1" data-name="Layer 1" xmlns="http://www.w3.org/2000/svg" viewBox="0 0 129.71 150.33">
  <defs>
    <style>
      .cls-1 {
        fill: #231f20;
      }
    </style>
  </defs>
  <rect class="cls-1" x="-22.77" y="86.01" width="62.51" height="4.02" transform="translate(-79.54 96.5) rotate(-90)"/>
  <rect class="cls-1" x="72.02" y="85.9" width="69.39" height="4.02" transform="translate(18.81 194.62) rotate(-90)"/>
  <rect class="cls-1" x="88.15" y="73.44" width="66.29" height="4.02" transform="translate(45.84 196.75) rotate(-90)"/>
  <rect class="cls-1" x="46.68" y="42.35" width="10.88" height="4.02" transform="translate(7.76 96.48) rotate(-90)"/>
  <rect class="cls-1" x="54.15" y="42.35" width="10.88" height="4.02" transform="translate(15.23 103.95) rotate(-90)"/>
  <rect class="cls-1" x="72.43" y="42.35" width="10.88" height="4.02" transform="translate(33.51 122.23) rotate(-90)"/>
  <rect class="cls-1" x="79.9" y="42.35" width="10.88" height="4.02" transform="translate(40.98 129.7) rotate(-90)"/>
  <rect class="cls-1" x="47.77" y="84.42" width="41.89" height="7.78" transform="translate(-19.6 157.03) rotate(-90)"/>
  <rect class="cls-1" x="65.16" y="67.23" width="10.88" height="4.02" transform="translate(1.36 139.83) rotate(-90)"/>
  <rect class="cls-1" x="61.01" y="71.46" width="4.04" height="4.02" transform="translate(-10.44 136.49) rotate(-90)"/>
  <rect class="cls-1" x="57.47" y="75.06" width="4.04" height="4.02" transform="translate(-17.58 136.56) rotate(-90)"/>
  <rect class="cls-1" x="53.75" y="78.81" width="4.04" height="4.02" transform="translate(-25.05 136.58) rotate(-90)"/>
  <rect class="cls-1" x="50.05" y="82.35" width="4.04" height="4.02" transform="translate(-32.29 136.43) rotate(-90)"/>
  <rect class="cls-1" x="45.96" y="86.6" width="5.03" height="4.02" transform="translate(-40.13 137.08) rotate(-90)"/>
  <rect class="cls-1" x="39.14" y="93.31" width="4.04" height="4.02" transform="translate(-54.15 136.48) rotate(-90)"/>
  <rect class="cls-1" x="35.53" y="96.87" width="4.04" height="4.02" transform="translate(-61.33 136.43) rotate(-90)"/>
  <rect class="cls-1" x="31.92" y="100.61" width="4.04" height="4.02" transform="translate(-68.68 136.55) rotate(-90)"/>
  <rect class="cls-1" x="27.96" y="104.54" width="4.71" height="4.02" transform="translate(-76.23 136.86) rotate(-90)"/>
  <rect class="cls-1" x="17.52" y="42.08" width="4.04" height="4.02" transform="translate(-24.56 63.63) rotate(-90)"/>
  <rect class="cls-1" x="13.74" y="45.64" width="4.04" height="4.02" transform="translate(-31.89 63.42) rotate(-90)"/>
  <rect class="cls-1" x="8.68" y="51.11" width="7.49" height="4.02" transform="translate(-40.69 65.54) rotate(-90)"/>
  <rect class="cls-1" x="108.52" y="49.41" width="4.04" height="4.02" transform="translate(59.12 161.96) rotate(-90)"/>
  <rect class="cls-1" x="112.16" y="45.62" width="4.04" height="4.02" transform="translate(66.55 161.81) rotate(-90)"/>
  <rect class="cls-1" x="113.88" y="40.03" width="7.45" height="4.02" transform="translate(75.56 159.64) rotate(-90)"/>
  <rect class="cls-1" x="79.47" y="35.01" width="4.04" height="4.02" transform="translate(44.48 118.51) rotate(-90)"/>
  <rect class="cls-1" x="53.76" y="35.01" width="4.04" height="4.02" transform="translate(18.76 92.8) rotate(-90)"/>
  <rect class="cls-1" x="43.07" y="89.47" width="22.24" height="4.02"/>
  <rect class="cls-1" x="21.49" y="107.69" width="18.07" height="4.02"/>
  <rect class="cls-1" x="57.51" y="107.75" width="22.48" height="4.02"/>
  <rect class="cls-1" x="10.26" y="118.58" width="95.74" height="4.02"/>
  <rect class="cls-1" x="12.72" y="52.84" width="96.03" height="4.02"/>
  <rect class="cls-1" x="21.28" y="38.44" width="32.81" height="4.02"/>
  <rect class="cls-1" x="57.72" y="38.44" width="22.25" height="4.02"/>
  <rect class="cls-1" x="83.45" y="38.31" width="33.94" height="4.02"/>
  <rect class="cls-1" x="57.41" y="31.27" width="22.25" height="4.02"/>
  <rect class="cls-1" x="52.55" y="45.78" width="8.47" height="4.02"/>
  <rect class="cls-1" x="77.65" y="45.78" width="8.47" height="4.02"/>
  <rect class="cls-1" x="108.29" y="115.2" width="4.04" height="4.02" transform="translate(-6.9 227.52) rotate(-90)"/>
  <rect class="cls-1" x="112.02" y="111.53" width="4.04" height="4.02" transform="translate(.5 227.58) rotate(-90)"/>
  <rect class="cls-1" x="115.84" y="107.86" width="4.04" height="4.02" transform="translate(8 227.73) rotate(-90)"/>
</svg>