<?xml version="1.0" encoding="UTF-8"?>
<svg id="Layer_1" data-name="Layer 1" xmlns="http://www.w3.org/2000/svg" viewBox="0 0 129.71 150.33">
  <defs>
    <style>
      .cls-1 {
        fill: #231f20;
      }
    </style>
  </defs>
  <rect class="cls-1" x="1.49" y="69.71" width="4.04" height="4.02" transform="translate(-68.21 75.22) rotate(-90)"/>
  <rect class="cls-1" x="5.51" y="65.79" width="4.04" height="4.02" transform="translate(-60.27 75.32) rotate(-90)"/>
  <rect class="cls-1" x="9.47" y="61.86" width="4.04" height="4.02" transform="translate(-52.38 75.36) rotate(-90)"/>
  <rect class="cls-1" x="13.49" y="57.87" width="4.04" height="4.02" transform="translate(-44.37 75.38) rotate(-90)"/>
  <rect class="cls-1" x="17.46" y="53.88" width="4.04" height="4.02" transform="translate(-36.42 75.37) rotate(-90)"/>
  <rect class="cls-1" x="21.43" y="49.96" width="4.04" height="4.02" transform="translate(-28.53 75.42) rotate(-90)"/>
  <rect class="cls-1" x="25.3" y="46.04" width="4.04" height="4.02" transform="translate(-20.73 75.37) rotate(-90)"/>
  <rect class="cls-1" x="29.32" y="41.98" width="4.04" height="4.02" transform="translate(-12.65 75.32) rotate(-90)"/>
  <rect class="cls-1" x="33.33" y="38.06" width="4.04" height="4.02" transform="translate(-4.72 75.42) rotate(-90)"/>
  <rect class="cls-1" x="37.3" y="34.04" width="4.04" height="4.02" transform="translate(3.26 75.37) rotate(-90)"/>
  <rect class="cls-1" x="41.23" y="30.03" width="4.04" height="4.02" transform="translate(11.21 75.29) rotate(-90)"/>
  <rect class="cls-1" x="45.23" y="26.06" width="4.04" height="4.02" transform="translate(19.18 75.32) rotate(-90)"/>
  <rect class="cls-1" x="49.23" y="22.06" width="4.04" height="4.02" transform="translate(27.19 75.32) rotate(-90)"/>
  <rect class="cls-1" x="53.21" y="18.08" width="4.04" height="4.02" transform="translate(35.14 75.32) rotate(-90)"/>
  <rect class="cls-1" x="57.14" y="14.07" width="4.04" height="4.02" transform="translate(43.08 75.23) rotate(-90)"/>
  <rect class="cls-1" x="61.1" y="10.01" width="4.04" height="4.02" transform="translate(51.1 75.14) rotate(-90)"/>
  <rect class="cls-1" x="65.12" y="14.07" width="4.04" height="4.02" transform="translate(51.06 83.21) rotate(-90)"/>
  <rect class="cls-1" x="69.14" y="18.03" width="4.04" height="4.02" transform="translate(51.12 91.2) rotate(-90)"/>
  <rect class="cls-1" x="73.12" y="22.04" width="4.04" height="4.02" transform="translate(51.1 99.19) rotate(-90)"/>
  <rect class="cls-1" x="77.07" y="26.02" width="4.04" height="4.02" transform="translate(51.06 107.11) rotate(-90)"/>
  <rect class="cls-1" x="81.03" y="29.99" width="4.04" height="4.02" transform="translate(51.06 115.05) rotate(-90)"/>
  <rect class="cls-1" x="85.05" y="33.95" width="4.04" height="4.02" transform="translate(51.1 123.03) rotate(-90)"/>
  <rect class="cls-1" x="89.02" y="37.92" width="4.04" height="4.02" transform="translate(51.1 130.96) rotate(-90)"/>
  <rect class="cls-1" x="92.98" y="41.89" width="4.04" height="4.02" transform="translate(51.1 138.9) rotate(-90)"/>
  <rect class="cls-1" x="96.92" y="45.86" width="4.04" height="4.02" transform="translate(51.07 146.82) rotate(-90)"/>
  <rect class="cls-1" x="100.86" y="49.82" width="4.04" height="4.02" transform="translate(51.05 154.71) rotate(-90)"/>
  <rect class="cls-1" x="104.88" y="53.82" width="4.04" height="4.02" transform="translate(51.07 162.72) rotate(-90)"/>
  <rect class="cls-1" x="108.86" y="57.82" width="4.04" height="4.02" transform="translate(51.05 170.71) rotate(-90)"/>
  <rect class="cls-1" x="112.86" y="61.8" width="4.04" height="4.02" transform="translate(51.07 178.69) rotate(-90)"/>
  <rect class="cls-1" x="116.81" y="65.72" width="4.04" height="4.02" transform="translate(51.1 186.55) rotate(-90)"/>
  <rect class="cls-1" x="120.75" y="69.66" width="4.04" height="4.02" transform="translate(51.1 194.44) rotate(-90)"/>
  <rect class="cls-1" x="124.78" y="73.69" width="4.04" height="4.02" transform="translate(51.09 202.5) rotate(-90)"/>
  <rect class="cls-1" x="120.75" y="77.7" width="4.04" height="4.02" transform="translate(43.06 202.47) rotate(-90)"/>
  <rect class="cls-1" x="116.85" y="81.68" width="4.04" height="4.02" transform="translate(35.18 202.55) rotate(-90)"/>
  <rect class="cls-1" x="96.99" y="69.78" width="4.04" height="4.02" transform="translate(27.22 170.79) rotate(-90)"/>
  <rect class="cls-1" x="100.98" y="73.76" width="4.04" height="4.02" transform="translate(27.24 178.77) rotate(-90)"/>
  <rect class="cls-1" x="104.93" y="77.67" width="4.04" height="4.02" transform="translate(27.27 186.63) rotate(-90)"/>
  <rect class="cls-1" x="108.87" y="81.62" width="4.04" height="4.02" transform="translate(27.26 194.52) rotate(-90)"/>
  <rect class="cls-1" x="61.22" y="77.7" width="4.04" height="4.02" transform="translate(-16.47 142.95) rotate(-90)"/>
  <rect class="cls-1" x="65.24" y="73.7" width="4.04" height="4.02" transform="translate(-8.46 142.97) rotate(-90)"/>
  <rect class="cls-1" x="69.21" y="69.72" width="4.04" height="4.02" transform="translate(-.5 142.96) rotate(-90)"/>
  <rect class="cls-1" x="57.13" y="89.75" width="4.04" height="4.02" transform="translate(-32.62 150.91) rotate(-90)"/>
  <rect class="cls-1" x="61.13" y="93.73" width="4.04" height="4.02" transform="translate(-32.6 158.89) rotate(-90)"/>
  <rect class="cls-1" x="65.07" y="97.65" width="4.04" height="4.02" transform="translate(-32.57 166.75) rotate(-90)"/>
  <rect class="cls-1" x="71.06" y="99.55" width="4.04" height="8.11" transform="translate(-30.53 176.68) rotate(-90)"/>
  <rect class="cls-1" x="5.48" y="73.71" width="4.04" height="4.02" transform="translate(-68.22 83.23) rotate(-90)"/>
  <rect class="cls-1" x="9.51" y="77.68" width="4.04" height="4.02" transform="translate(-68.16 91.21) rotate(-90)"/>
  <rect class="cls-1" x="13.49" y="81.68" width="4.04" height="4.02" transform="translate(-68.18 99.2) rotate(-90)"/>
  <rect class="cls-1" x="17.43" y="85.66" width="4.04" height="4.02" transform="translate(-68.22 107.12) rotate(-90)"/>
  <rect class="cls-1" x="21.4" y="89.63" width="4.04" height="4.02" transform="translate(-68.22 115.06) rotate(-90)"/>
  <rect class="cls-1" x="25.41" y="93.6" width="4.04" height="4.02" transform="translate(-68.17 123.04) rotate(-90)"/>
  <rect class="cls-1" x="29.38" y="97.57" width="4.04" height="4.02" transform="translate(-68.17 130.98) rotate(-90)"/>
  <rect class="cls-1" x="33.35" y="101.53" width="4.04" height="4.02" transform="translate(-68.17 138.91) rotate(-90)"/>
  <rect class="cls-1" x="37.29" y="105.51" width="4.04" height="4.02" transform="translate(-68.21 146.83) rotate(-90)"/>
  <rect class="cls-1" x="41.23" y="109.47" width="4.04" height="4.02" transform="translate(-68.23 154.73) rotate(-90)"/>
  <rect class="cls-1" x="45.24" y="113.47" width="4.04" height="4.02" transform="translate(-68.21 162.74) rotate(-90)"/>
  <rect class="cls-1" x="49.23" y="117.47" width="4.04" height="4.02" transform="translate(-68.23 170.73) rotate(-90)"/>
  <rect class="cls-1" x="53.23" y="121.44" width="4.04" height="4.02" transform="translate(-68.21 178.7) rotate(-90)"/>
  <rect class="cls-1" x="57.17" y="125.36" width="4.04" height="4.02" transform="translate(-68.18 186.56) rotate(-90)"/>
  <rect class="cls-1" x="61.11" y="129.31" width="4.04" height="4.02" transform="translate(-68.18 194.45) rotate(-90)"/>
  <rect class="cls-1" x="65.14" y="133.34" width="4.04" height="4.02" transform="translate(-68.18 202.51) rotate(-90)"/>
  <rect class="cls-1" x="69.2" y="129.48" width="4.04" height="4.02" transform="translate(-60.27 202.71) rotate(-90)"/>
  <rect class="cls-1" x="73.16" y="125.56" width="4.04" height="4.02" transform="translate(-52.39 202.75) rotate(-90)"/>
  <rect class="cls-1" x="77.18" y="121.56" width="4.04" height="4.02" transform="translate(-44.37 202.76) rotate(-90)"/>
  <rect class="cls-1" x="81.15" y="117.58" width="4.04" height="4.02" transform="translate(-36.42 202.75) rotate(-90)"/>
  <rect class="cls-1" x="85.12" y="113.65" width="4.04" height="4.02" transform="translate(-28.53 202.8) rotate(-90)"/>
  <rect class="cls-1" x="88.87" y="109.61" width="4.29" height="4.02" transform="translate(-20.6 202.63) rotate(-90)"/>
  <rect class="cls-1" x="53.19" y="81.77" width="4.04" height="11.9" transform="translate(-32.52 142.93) rotate(-90)"/>
  <rect class="cls-1" x="65.16" y="77.66" width="4.04" height="11.9" transform="translate(-16.43 150.79) rotate(-90)"/>
  <rect class="cls-1" x="83.06" y="71.75" width="4.04" height="31.79" transform="translate(-2.56 172.72) rotate(-90)"/>
  <rect class="cls-1" x="83.12" y="55.83" width="4.04" height="24.03" transform="translate(17.29 152.98) rotate(-90)"/>
  <rect class="cls-1" x="75.08" y="87.73" width="4.04" height="7.88" transform="translate(-14.56 168.77) rotate(-90)"/>
  <rect class="cls-1" x="75.07" y="75.72" width="4.04" height="7.88" transform="translate(-2.57 156.76) rotate(-90)"/>
  <rect class="cls-1" x="81.05" y="81.72" width="4.04" height="4.02" transform="translate(-.65 166.8) rotate(-90)"/>
  <rect class="cls-1" x="90.98" y="91.76" width="4.04" height="31.8" transform="translate(-14.66 200.66) rotate(-90)"/>
  <rect class="cls-1" x="114.58" y="103.82" width="4.04" height="15.53" transform="translate(5.01 228.18) rotate(-90)"/>
  <rect class="cls-1" x="118.79" y="79.72" width="4.04" height="15.82" transform="translate(33.17 208.44) rotate(-90)"/>
  <rect class="cls-1" x="108.59" y="97.43" width="28.49" height="11.76" transform="translate(19.53 226.14) rotate(-90)"/>
</svg>