<?xml version="1.0" encoding="UTF-8"?>
<svg id="Layer_1" data-name="Layer 1" xmlns="http://www.w3.org/2000/svg" viewBox="0 0 129.71 150.33">
  <defs>
    <style>
      .cls-1 {
        fill: #231f20;
      }
    </style>
  </defs>
  <rect class="cls-1" x="35.85" y="73.31" width="23.89" height="4.02" transform="translate(-27.53 123.11) rotate(-90)"/>
  <rect class="cls-1" x="71.69" y="73.31" width="23.89" height="4.02" transform="translate(8.32 158.96) rotate(-90)"/>
  <rect class="cls-1" x="59.63" y="69.3" width="15.8" height="4.02" transform="translate(-3.77 138.84) rotate(-90)"/>
  <rect class="cls-1" x="57.67" y="39.53" width="15.8" height="23.71" transform="translate(14.19 116.95) rotate(-90)"/>
  <rect class="cls-1" x="57.81" y="87.25" width="15.8" height="23.71" transform="translate(-33.39 164.82) rotate(-90)"/>
  <rect class="cls-1" x="49.75" y="87.24" width="4.04" height="4.02" transform="translate(-37.48 141.02) rotate(-90)"/>
  <rect class="cls-1" x="77.6" y="87.26" width="4.04" height="4.02" transform="translate(-9.64 168.89) rotate(-90)"/>
  <rect class="cls-1" x="77.47" y="59.33" width="4.04" height="4.02" transform="translate(18.14 140.83) rotate(-90)"/>
  <rect class="cls-1" x="49.78" y="59.32" width="4.04" height="4.02" transform="translate(-9.53 113.14) rotate(-90)"/>
  <rect class="cls-1" x="83.49" y="73.32" width="7.95" height="4.02" transform="translate(12.14 162.79) rotate(-90)"/>
  <rect class="cls-1" x="60.47" y="72.41" width="4.04" height="9.56" transform="translate(-14.7 139.68) rotate(-90)"/>
</svg>